<svg id="Layer_1" height="512" viewBox="0 0 512 512" width="512" xmlns="http://www.w3.org/2000/svg" data-name="Layer 1"><path d="m191.47 233.42a31.877 31.877 0 0 0 -38.58-22.32l-21.49 5.47 9.84 39.62 51.08-18.71z" fill="#c79a83"/><path d="m103.42 17-21.47 5.47 49.45 194.1 21.49-5.47z" fill="#b0b5ca"/><path d="m383.47 244.37a236.2 236.2 0 0 1 -45.63-16.86c-6.2-3.09-14.91-6.12-21.37-8.62a29.073 29.073 0 0 1 1.065 8.35l-.535 267.76h125v-175.03a78.346 78.346 0 0 0 -58.53-75.6z" fill="#d3727a"/><path d="m232.08 219h-.01l-18.1 8.305a190.528 190.528 0 0 1 -21.65 9.2 231.1 231.1 0 0 1 -25.33 7.417 76.971 76.971 0 0 0 -25.64 11.278 77.907 77.907 0 0 0 -34.35 64.77v175.03h124l-.22-267.715a30.779 30.779 0 0 1 1.3-8.285z" fill="#d3727a"/><path d="m317.66 237.99 58.97 61.39-17.56 18.88a27.716 27.716 0 0 0 -2.54 34.58l.56.82a27.692 27.692 0 0 1 3.15 25.35l-43.04 115.99.39-257.01z" fill="#f58387"/><path d="m230.88 237.99.3 257.01-42.91-115.64a27.723 27.723 0 0 1 3.49-25.83 27.731 27.731 0 0 0 -2.76-35.66l-17.25-17.49 59.09-62.39z" fill="#f58387"/><path d="m316.37 218.89a29.492 29.492 0 0 0 -1.025-3c-2.36 1.89-4.825 4.115-7.425 3.115h-67.46c-2.57 1-5.04-1.185-7.37-3.045a26.179 26.179 0 0 0 -1.01 2.9 29.206 29.206 0 0 0 -1.3 8.357l.22 267.783h86l.51-267.76a29.093 29.093 0 0 0 -1.14-8.35z" fill="#a4bdc1"/><path d="m240 219v31.29a34 34 0 0 0 68 0v-31.29z" fill="#efc597"/><path d="m307.92 221.13a65.939 65.939 0 0 1 -67.46 0 67.146 67.146 0 0 1 -7.37-5.11c-.33-.26-.64-.52-.96-.78a65.794 65.794 0 0 1 -22.68-38.53l-3.66-12.59v-.1a17.78 17.78 0 0 1 -14.68-17.5 17.457 17.457 0 0 1 .51-4.24 13.365 13.365 0 0 1 11.9-10.18v.41a9.453 9.453 0 0 0 14.28-7.72 27.624 27.624 0 0 1 25.55-26.26c.21-.02.42-.03.63-.05 40.51 36.1 100.91 33.78 100.91 33.78v-.16a13.356 13.356 0 0 1 11.87 10.18 17.457 17.457 0 0 1 .51 4.24 17.782 17.782 0 0 1 -14.68 17.5v.1l-3.66 12.59a65.741 65.741 0 0 1 -23.56 39.24 67.351 67.351 0 0 1 -7.45 5.18z" fill="#ffd8b7"/><path d="m243.98 98.48c-.21.02-.42.03-.63.05a27.624 27.624 0 0 0 -25.55 26.26 9.453 9.453 0 0 1 -14.28 7.72v-36.36a70.685 70.685 0 1 1 141.37 0v36.11s-60.4 2.32-100.91-33.78z" fill="#6d7486"/><path d="m171.35 255.2a76.971 76.971 0 0 1 25.64-11.273 231.1 231.1 0 0 0 25.33-7.417c2.849-1.017 5.666-2.112 8.465-3.251v-5.971a30.779 30.779 0 0 1 1.3-8.285h-.01l-18.1 8.305a190.528 190.528 0 0 1 -21.65 9.2 231.1 231.1 0 0 1 -25.33 7.417 76.971 76.971 0 0 0 -25.645 11.275 77.907 77.907 0 0 0 -34.35 64.77v175.03h30v-175.03a77.907 77.907 0 0 1 34.35-64.77z" fill="#b2646e"/><g fill="#284268"><path d="m137 312.482a6 6 0 0 0 -6 6v5.3a6 6 0 0 0 12 0v-5.3a6 6 0 0 0 -6-6z"/><path d="m137 337.786a6 6 0 0 0 -6 6v76.024a6 6 0 0 0 12 0v-76.024a6 6 0 0 0 -6-6z"/><path d="m384.984 238.569a231 231 0 0 1 -44.467-16.431c-4.627-2.3-10.448-4.522-15.744-6.518a71.623 71.623 0 0 0 20.02-37.507l2.658-9.185a24.048 24.048 0 0 0 15.2-28.076 18.656 18.656 0 0 0 -11.651-13.419v-31.285a76.5 76.5 0 1 0 -153 0v31.274a19.07 19.07 0 0 0 -11.97 13.43 23.967 23.967 0 0 0 -.8 5.666 23.666 23.666 0 0 0 15.77 22.411l2.64 9.184a71.654 71.654 0 0 0 20.406 37.881l-12.59 5.812c-.059.027-.121.056-.179.085-4.805 2.412-9.847 4.644-15.086 6.707a38.206 38.206 0 0 0 -38.88-24.319l-48.081-188.76a6 6 0 0 0 -7.3-4.333l-21.459 5.467a6 6 0 0 0 -4.333 7.3l.811 3.184-8.034 2.047a6 6 0 1 0 2.962 11.629l8.034-2.047 54.511 213.984a83.792 83.792 0 0 0 -33.422 67.221v175.029a5.815 5.815 0 0 0 5.777 6h334.823c3.313 0 6.4-2.687 6.4-6v-175.029a84.307 84.307 0 0 0 -63.016-81.402zm-174.984-142.421a64.5 64.5 0 1 1 129 0v30.073c-14-.442-49.869-3.582-79.547-23.4 21.466-3.051 46.429-9.742 65.105-24.065a6.007 6.007 0 0 0 -7.323-9.523c-20.875 16.011-51.4 21.495-73.607 23.259-.081 0-.163.011-.244.019l-.489.038a33.679 33.679 0 0 0 -31.095 31.964 3.327 3.327 0 0 1 -1.575 2.895c-.116.063-.227.139-.227.21zm-25.1 136.514q-9.293 3.048-19.28 5.405a82.958 82.958 0 0 0 -20.556 7.854l-6.373-25.016 15.678-3.993a26.059 26.059 0 0 1 30.531 15.75zm-95.653-205.862 9.835-2.5 46.483 182.476-9.835 2.505zm81.753 462.2v-124.968a6 6 0 1 0 -12 0v124.968h-46v-169.029a71.711 71.711 0 0 1 55.471-70.221 219.171 219.171 0 0 0 48.156-17.09l8.274-3.835-.006 6.729-57.493 60.7a6 6 0 0 0 .082 8.34l17.247 17.484a21.658 21.658 0 0 1 2.164 27.94 33.669 33.669 0 0 0 -4.248 31.43l39.905 107.552zm22.9-111.723a21.683 21.683 0 0 1 2.736-20.243 33.63 33.63 0 0 0 -3.361-43.38l-13.175-13.354 44.8-47.315.239 208.493zm117.312 111.723h-74.041l-.257-224.958a39.731 39.731 0 0 0 74.645-.251zm-65.212-238.7v-19.461a73.15 73.15 0 0 0 56 0v19.461a28 28 0 0 1 -56 0zm28.19-25.885a59.906 59.906 0 0 1 -58.839-48.815c-.036-.19-.081-.38-.135-.566l-3.522-12.111a6 6 0 0 0 -4.866-4.821 11.784 11.784 0 0 1 -9.383-14.4 7.168 7.168 0 0 1 4.666-5.188 15.467 15.467 0 0 0 21.678-13.458 21.657 21.657 0 0 1 18.224-20.333c41.743 35.457 100.587 33.627 103.109 33.53.064 0 .125-.012.188-.016a7.258 7.258 0 0 1 5.627 5.465 11.865 11.865 0 0 1 .336 2.813 11.736 11.736 0 0 1 -9.72 11.587 6 6 0 0 0 -4.866 4.821l-3.521 12.111a5.75 5.75 0 0 0 -.135.566 59.908 59.908 0 0 1 -58.841 48.81zm49.385 28.4 44.8 46.639-13.695 14.72a33.522 33.522 0 0 0 -3.092 42.068l.563.817a21.739 21.739 0 0 1 2.466 19.859l-31.363 84.524zm112.425 236.185h-46v-124.968a6 6 0 1 0 -12 0v124.968h-52.171l40.038-107.907a33.755 33.755 0 0 0 -3.829-30.835l-.563-.817a21.591 21.591 0 0 1 1.992-27.095l17.556-18.877a6 6 0 0 0 -.066-8.242l-57.357-59.711.012-7.481c4.074 1.563 8.189 3.219 11.454 4.845a243.939 243.939 0 0 0 46.885 17.3 72.3 72.3 0 0 1 54.049 69.791z"/></g></svg>